<svg width="108" height="73" viewBox="0 0 108 73" fill="none" xmlns="http://www.w3.org/2000/svg">
<path d="M0 38.4381C0 31.0764 8.19576 24.5267 20.9275 20.3418V27.2484C20.0104 27.5836 19.1266 27.9317 18.2783 28.2917C13.8656 30.1637 10.7142 32.2263 8.76377 34.1826C6.8366 36.1156 6.43924 37.5492 6.43924 38.4381C6.43924 39.327 6.8366 40.7607 8.76377 42.6937C10.7142 44.65 13.8656 46.7126 18.2783 48.5846C25.5525 51.6706 35.4266 53.889 46.6845 54.5648V61.1123C20.3261 59.611 0 50.0316 0 38.4381Z" fill="#72C4FF"/>
<path d="M74.0513 59.6711C93.8683 56.2878 107.857 48.056 107.857 38.4381C107.857 31.0764 99.6616 24.5267 86.9298 20.3418V27.2484C87.847 27.5836 88.7307 27.9317 89.5791 28.2917C93.9917 30.1637 97.1432 32.2263 99.0936 34.1826C101.021 36.1156 101.418 37.5492 101.418 38.4381C101.418 39.327 101.021 40.7607 99.0936 42.6937C97.1432 44.65 93.9917 46.7126 89.5791 48.5846C85.2416 50.4247 79.9797 51.9564 74.0513 53.0364V59.6711Z" fill="#72C4FF"/>
<path d="M46.6845 41.5864L63.5875 57.1113L46.6845 72.6363V41.5864Z" fill="#72C4FF"/>
<path d="M30.454 18.1351H33.1991C33.9818 18.1351 34.6263 17.9969 35.1328 17.7207C35.6507 17.4445 36.0305 17.0531 36.2722 16.5467C36.5255 16.0403 36.6521 15.4475 36.6521 14.7684C36.6521 14.1814 36.537 13.6577 36.3068 13.1973C36.0766 12.7369 35.7255 12.3744 35.2536 12.1097C34.7932 11.8334 34.1947 11.6953 33.4581 11.6953C32.9286 11.6953 32.4222 11.8047 31.9388 12.0233C31.4669 12.2305 31.0813 12.5355 30.7821 12.9384C30.4828 13.3297 30.3332 13.8016 30.3332 14.3541H24.9293C24.9293 12.9499 25.3091 11.7356 26.0688 10.7112C26.8399 9.68684 27.8586 8.89842 29.1246 8.34595C30.4022 7.78197 31.7949 7.49998 33.3027 7.49998C35.0407 7.49998 36.5657 7.77621 37.8779 8.32868C39.2015 8.86965 40.2259 9.67533 40.951 10.7457C41.6876 11.8047 42.0559 13.1168 42.0559 14.6821C42.0559 15.4993 41.8603 16.2877 41.4689 17.0474C41.0891 17.7955 40.5424 18.4631 39.8288 19.0501C39.1267 19.6256 38.2865 20.086 37.3081 20.4313C36.3413 20.7651 35.2651 20.9319 34.0796 20.9319H30.454V18.1351ZM30.454 22.1923V19.4472H34.0796C35.3917 19.4472 36.5657 19.5968 37.6016 19.8961C38.6375 20.1953 39.518 20.6269 40.2431 21.1909C40.9683 21.7549 41.5207 22.4397 41.9005 23.2454C42.2804 24.0511 42.4703 24.9489 42.4703 25.9387C42.4703 27.1127 42.2401 28.1601 41.7797 29.0809C41.3193 30.0017 40.6748 30.7786 39.846 31.4116C39.0173 32.0447 38.0448 32.5281 36.9283 32.8619C35.8119 33.1842 34.6033 33.3453 33.3027 33.3453C32.2553 33.3453 31.2137 33.2014 30.1778 32.9137C29.1419 32.6259 28.2039 32.1886 27.3636 31.6016C26.5234 31.003 25.8501 30.2492 25.3437 29.3399C24.8372 28.4191 24.584 27.3257 24.584 26.0596H29.9879C29.9879 26.6466 30.1375 27.176 30.4368 27.6479C30.7475 28.1083 31.1676 28.4766 31.6971 28.7529C32.238 29.0176 32.8251 29.15 33.4581 29.15C34.2177 29.15 34.8623 29.0118 35.3917 28.7356C35.9327 28.4479 36.3413 28.0565 36.6175 27.5616C36.9053 27.0667 37.0492 26.4969 37.0492 25.8524C37.0492 24.9776 36.8938 24.2756 36.583 23.7461C36.2838 23.2051 35.8464 22.8138 35.2709 22.5721C34.6954 22.3189 34.0048 22.1923 33.1991 22.1923H30.454ZM58.6301 7.55177H59.4588V11.8334H59.148C57.9395 11.8334 56.8346 12.0061 55.8332 12.3514C54.8434 12.6967 53.9859 13.2089 53.2607 13.8879C52.5356 14.5555 51.9774 15.3842 51.5861 16.3741C51.2062 17.3524 51.0163 18.4804 51.0163 19.7579V24.0396C51.0163 24.9028 51.0911 25.6567 51.2408 26.3013C51.4019 26.9343 51.6321 27.4638 51.9314 27.8896C52.2421 28.304 52.6162 28.6205 53.0536 28.8392C53.4909 29.0464 53.9859 29.15 54.5383 29.15C55.0333 29.15 55.4879 29.0406 55.9023 28.8219C56.3166 28.6032 56.6734 28.2925 56.9727 27.8896C57.2719 27.4868 57.5021 27.0206 57.6633 26.4912C57.8244 25.9502 57.905 25.3632 57.905 24.7302C57.905 24.0626 57.8186 23.4584 57.646 22.9174C57.4849 22.3649 57.2489 21.893 56.9381 21.5017C56.6389 21.1103 56.2706 20.8111 55.8332 20.6039C55.3958 20.3852 54.9124 20.2759 54.383 20.2759C53.6233 20.2759 52.9672 20.4485 52.4148 20.7938C51.8623 21.1391 51.4364 21.5823 51.1372 22.1232C50.8379 22.6642 50.6825 23.2166 50.671 23.7806L49.2381 22.5894C49.2381 21.8067 49.3934 21.0355 49.7042 20.2759C50.0265 19.5047 50.4811 18.8084 51.0681 18.1869C51.6551 17.5538 52.3745 17.0531 53.2262 16.6848C54.0895 16.305 55.0735 16.1151 56.1785 16.1151C57.341 16.1151 58.3654 16.3395 59.2516 16.7884C60.1379 17.2258 60.8803 17.8358 61.4788 18.6185C62.0888 19.4011 62.5434 20.3162 62.8427 21.3636C63.1534 22.3994 63.3088 23.5101 63.3088 24.6957C63.3088 25.9157 63.0959 27.0552 62.67 28.1141C62.2557 29.1615 61.6687 30.0765 60.909 30.8592C60.1494 31.6418 59.2401 32.2519 58.1812 32.6892C57.1338 33.1266 55.9656 33.3453 54.6765 33.3453C53.3413 33.3453 52.1213 33.1093 51.0163 32.6374C49.9229 32.1655 48.9676 31.4922 48.1504 30.6175C47.3447 29.7312 46.7174 28.6723 46.2685 27.4408C45.8312 26.2092 45.6125 24.828 45.6125 23.2972V21.2772C45.6125 19.1825 45.9347 17.2948 46.5793 15.6144C47.2354 13.934 48.1446 12.4952 49.3071 11.2982C50.4811 10.0897 51.8623 9.16315 53.4507 8.5186C55.039 7.87404 56.7655 7.55177 58.6301 7.55177ZM83.2496 18.1869V22.6584C83.2496 24.5 83.0424 26.0941 82.6281 27.4408C82.2252 28.7874 81.6382 29.8981 80.8671 30.7728C80.1074 31.6476 79.1981 32.2979 78.1392 32.7238C77.0918 33.1381 75.9294 33.3453 74.6518 33.3453C73.6274 33.3453 72.6721 33.2129 71.7858 32.9482C70.8996 32.6835 70.0996 32.2749 69.386 31.7224C68.6839 31.1584 68.0797 30.4563 67.5732 29.6161C67.0668 28.7759 66.6755 27.7745 66.3992 26.612C66.1345 25.4496 66.0021 24.1317 66.0021 22.6584V18.1869C66.0021 16.3223 66.2036 14.7224 66.6064 13.3873C67.0207 12.0521 67.6135 10.9472 68.3847 10.0724C69.1558 9.19768 70.0651 8.55312 71.1125 8.13877C72.1714 7.72442 73.3396 7.51724 74.6172 7.51724C75.6416 7.51724 76.5912 7.6496 77.4659 7.91433C78.3522 8.17906 79.1521 8.58765 79.8657 9.14013C80.5793 9.6926 81.1836 10.3889 81.6785 11.2292C82.1849 12.0694 82.5705 13.0707 82.8353 14.2332C83.1115 15.3842 83.2496 16.7021 83.2496 18.1869ZM77.863 23.3317V17.479C77.863 16.6158 77.8112 15.8676 77.7076 15.2346C77.6155 14.59 77.4774 14.0433 77.2933 13.5944C77.1206 13.1455 76.9019 12.783 76.6372 12.5068C76.3725 12.2305 76.0675 12.0291 75.7222 11.9025C75.3884 11.7644 75.0201 11.6953 74.6172 11.6953C74.1108 11.6953 73.6562 11.7989 73.2533 12.0061C72.8505 12.2133 72.5109 12.5413 72.2347 12.9902C71.9585 13.4275 71.7455 14.0203 71.5959 14.7684C71.4578 15.5051 71.3887 16.4086 71.3887 17.479V23.3317C71.3887 24.195 71.4348 24.9489 71.5268 25.5934C71.6304 26.238 71.7686 26.7904 71.9412 27.2508C72.1254 27.6997 72.3498 28.068 72.6145 28.3558C72.8793 28.632 73.1843 28.8334 73.5296 28.9601C73.8749 29.0867 74.2489 29.15 74.6518 29.15C75.1582 29.15 75.6071 29.0521 75.9984 28.8565C76.3897 28.6493 76.7235 28.3213 76.9998 27.8724C77.2875 27.412 77.5004 26.8077 77.6386 26.0596C77.7882 25.3114 77.863 24.4022 77.863 23.3317ZM87.0306 12.2996C87.0306 11.4248 87.2435 10.6249 87.6694 9.89977C88.1068 9.17466 88.688 8.59916 89.4131 8.1733C90.1382 7.73593 90.9324 7.51724 91.7957 7.51724C92.6589 7.51724 93.4416 7.73593 94.1437 8.1733C94.8573 8.59916 95.427 9.17466 95.8529 9.89977C96.2787 10.6249 96.4917 11.4248 96.4917 12.2996C96.4917 13.1743 96.2787 13.9743 95.8529 14.6994C95.427 15.413 94.8573 15.9827 94.1437 16.4086C93.4416 16.8229 92.6589 17.0301 91.7957 17.0301C90.9324 17.0301 90.1382 16.8229 89.4131 16.4086C88.688 15.9827 88.1068 15.413 87.6694 14.6994C87.2435 13.9743 87.0306 13.1743 87.0306 12.2996ZM89.603 12.2996C89.603 12.9211 89.816 13.439 90.2418 13.8534C90.6792 14.2562 91.1971 14.4577 91.7957 14.4577C92.3827 14.4577 92.8776 14.2562 93.2804 13.8534C93.6948 13.4506 93.902 12.9326 93.902 12.2996C93.902 11.6665 93.6948 11.1428 93.2804 10.7285C92.8776 10.3026 92.3827 10.0897 91.7957 10.0897C91.1971 10.0897 90.6792 10.3026 90.2418 10.7285C89.816 11.1428 89.603 11.6665 89.603 12.2996Z" fill="#72C4FF"/>
</svg>
